<?xml version="1.0" encoding="utf-8"?>
<!-- Generator: Adobe Illustrator 24.3.0, SVG Export Plug-In . SVG Version: 6.00 Build 0)  -->
<svg version="1.1" id="Layer_1" xmlns="http://www.w3.org/2000/svg" xmlns:xlink="http://www.w3.org/1999/xlink" x="0px" y="0px"
	 viewBox="0 0 300 300" style="enable-background:new 0 0 300 300;" xml:space="preserve">
<style type="text/css">
	.st0{fill:#0072B8;}
	.st1{fill:#FFFFFF;}
</style>
<circle class="st0" cx="150" cy="150" r="150"/>
<path class="st1" d="M164.6,134.7v-12c3.9-1.6,7.8-2.9,11.9-3.7c4.1-0.8,8.3-1.2,12.8-1.2c3.1,0,6,0.2,9,0.7s5.8,1.1,8.6,1.8v11.3
	c-2.8-1.1-5.7-1.8-8.5-2.4c-2.9-0.5-5.9-0.8-9.1-0.8c-4.5,0-8.7,0.6-12.9,1.7C172.3,131.2,168.3,132.7,164.6,134.7z M164.6,173.4
	v-12c3.9-1.6,7.8-2.9,11.9-3.7c4.1-0.8,8.3-1.2,12.8-1.2c3.1,0,6,0.2,9,0.7c2.9,0.5,5.8,1.1,8.6,1.8v11.3c-2.8-1.1-5.7-1.8-8.5-2.4
	c-2.9-0.5-5.9-0.8-9.1-0.8c-4.5,0-8.7,0.5-12.9,1.6C172.3,169.7,168.3,171.3,164.6,173.4z M164.6,154.1v-12
	c3.9-1.6,7.8-2.9,11.9-3.7c4.1-0.8,8.3-1.2,12.8-1.2c3.1,0,6,0.2,9,0.7c2.9,0.5,5.8,1.1,8.6,1.8v11.3c-2.8-1.1-5.7-1.9-8.5-2.4
	c-2.9-0.5-5.9-0.8-9.1-0.8c-4.5,0-8.7,0.6-12.9,1.7C172.3,150.5,168.3,152.1,164.6,154.1z M111.8,177.7c5.5,0,10.9,0.6,16.1,1.9
	c5.2,1.2,10.4,3.1,15.6,5.5v-69.4c-4.8-2.8-9.9-4.9-15.3-6.3c-5.4-1.4-10.9-2.1-16.4-2.1c-4.2,0-8.4,0.4-12.6,1.2
	c-4.2,0.8-8.2,2.1-12.1,3.7v69.7c4.1-1.4,8.2-2.5,12.2-3.2C103.4,178,107.6,177.7,111.8,177.7z M157.5,185.1
	c5.2-2.5,10.4-4.3,15.6-5.5c5.2-1.2,10.6-1.8,16.1-1.9c4.2,0,8.4,0.4,12.4,1.1c4.1,0.7,8.1,1.8,12.2,3.2v-69.7
	c-3.9-1.6-7.9-2.9-12.1-3.7c-4.2-0.8-8.4-1.2-12.6-1.2c-5.5,0-11,0.7-16.4,2.1c-5.4,1.4-10.5,3.5-15.3,6.3V185.1z M150.5,205.8
	c-5.6-4.5-11.7-7.9-18.3-10.4c-6.6-2.5-13.4-3.7-20.4-3.7c-4.9,0-9.8,0.6-14.5,1.9c-4.8,1.3-9.3,3.1-13.6,5.5
	c-2.5,1.3-4.8,1.2-7.1-0.2c-2.3-1.4-3.4-3.5-3.4-6.2V108c0-1.3,0.3-2.5,1-3.7c0.6-1.2,1.6-2.1,2.9-2.6c5.4-2.8,11-4.9,16.9-6.3
	c5.9-1.4,11.9-2.1,18-2.1c6.8,0,13.5,0.9,20,2.6c6.5,1.8,12.8,4.4,18.7,7.9c6-3.5,12.2-6.2,18.8-7.9c6.5-1.8,13.2-2.6,20-2.6
	c6.1,0,12.1,0.7,18,2.1c5.9,1.4,11.5,3.5,16.9,6.3c1.3,0.6,2.3,1.5,2.9,2.6c0.6,1.2,1,2.4,1,3.7v84.9c0,2.7-1.1,4.8-3.4,6.2
	c-2.3,1.4-4.7,1.5-7.1,0.2c-4.3-2.3-8.9-4.2-13.6-5.5c-4.8-1.3-9.6-1.9-14.5-1.9c-7,0-13.8,1.2-20.4,3.7
	C162.2,197.9,156.1,201.4,150.5,205.8z"/>
</svg>
